<svg xmlns="http://www.w3.org/2000/svg" viewBox="0 0 1000 1075" width="1000" height="1075">
<style>
text{font-family:'Courier New',Consolas,monospace}
.s{animation:tw 3s ease-in-out infinite}
@keyframes tw{0%,100%{opacity:.12}50%{opacity:1}}
.glow{filter:url(#glow)}
.l{opacity:0;animation:show .4s ease-out forwards}
@keyframes show{to{opacity:1}}
.c{animation:blink 1s steps(1) infinite}
@keyframes blink{50%{opacity:0}}
</style>
<defs>
<filter id="glow" x="-40%" y="-40%" width="180%" height="180%"><feGaussianBlur stdDeviation="4" result="b"/><feMerge><feMergeNode in="b"/><feMergeNode in="SourceGraphic"/></feMerge></filter>
<linearGradient id="txt" x1="0" y1="0" x2="1" y2="0"><stop offset="0" stop-color="#ff3399"/><stop offset=".5" stop-color="#c77dff"/><stop offset="1" stop-color="#7b9cff"/></linearGradient>
<linearGradient id="bar" x1="0" y1="0" x2="1" y2="0"><stop offset="0" stop-color="#ff3399"/><stop offset="1" stop-color="#7b2ff7"/></linearGradient>
<linearGradient id="fadeL" x1="0" y1="0" x2="1" y2="0"><stop offset="0" stop-color="#7b2ff7" stop-opacity="0"/><stop offset="1" stop-color="#c77dff" stop-opacity=".9"/></linearGradient>
<linearGradient id="fadeR" x1="0" y1="0" x2="1" y2="0"><stop offset="0" stop-color="#c77dff" stop-opacity=".9"/><stop offset="1" stop-color="#7b2ff7" stop-opacity="0"/></linearGradient>
<radialGradient id="nebP"><stop offset="0" stop-color="#ff3399" stop-opacity=".22"/><stop offset="1" stop-color="#ff3399" stop-opacity="0"/></radialGradient>
<radialGradient id="nebV"><stop offset="0" stop-color="#7b2ff7" stop-opacity=".32"/><stop offset="1" stop-color="#7b2ff7" stop-opacity="0"/></radialGradient>
<radialGradient id="planet" cx="0.35" cy="0.3" r="0.9"><stop offset="0" stop-color="#ffb3dd"/><stop offset=".45" stop-color="#b44bd6"/><stop offset="1" stop-color="#2a0a5e"/></radialGradient>
<radialGradient id="moon" cx="0.35" cy="0.3" r="0.9"><stop offset="0" stop-color="#ffffff"/><stop offset="1" stop-color="#6a5a99"/></radialGradient>
<radialGradient id="sun" cx=".35" cy=".3" r=".9"><stop offset="0" stop-color="#fff0f8"/><stop offset=".4" stop-color="#ff3399"/><stop offset="1" stop-color="#7b2ff7"/></radialGradient>
<linearGradient id="tbg" x1="0" y1="0" x2="0" y2="1"><stop offset="0" stop-color="#0a0418"/><stop offset="1" stop-color="#170a33"/></linearGradient>
<linearGradient id="hor" x1="0" y1="0" x2="1" y2="0"><stop offset="0" stop-color="#7b2ff7"/><stop offset=".5" stop-color="#ff3399"/><stop offset="1" stop-color="#7b2ff7"/></linearGradient>
</defs>

<rect width="1000" height="1075" fill="#0a0418"/>
<ellipse cx="200" cy="200" rx="340" ry="150" fill="url(#nebP)"/><ellipse cx="820" cy="260" rx="320" ry="160" fill="url(#nebV)"/><ellipse cx="500" cy="650" rx="480" ry="240" fill="url(#nebV)"/><ellipse cx="500" cy="1000" rx="400" ry="90" fill="url(#nebP)"/>
<circle cx="20.1" cy="120.8" r="1.3" fill="#ffd6ec" class="s" style="animation-delay:2.74s;animation-duration:2.42s"/>
<circle cx="118.6" cy="249.2" r="0.8" fill="#ffd6ec" class="s" style="animation-delay:3.93s;animation-duration:2.10s"/>
<circle cx="67.6" cy="248.5" r="1.3" fill="#c3e4ff" class="s" style="animation-delay:0.82s;animation-duration:3.78s"/>
<circle cx="124.3" cy="828.0" r="1.3" fill="#d9c8ff" class="s" style="animation-delay:0.79s;animation-duration:2.99s"/>
<circle cx="367.1" cy="1026.7" r="0.8" fill="#ffd6ec" class="s" style="animation-delay:1.67s;animation-duration:3.99s"/>
<circle cx="67.1" cy="55.4" r="0.8" fill="#d9c8ff" class="s" style="animation-delay:0.54s;animation-duration:2.44s"/>
<circle cx="791.3" cy="404.6" r="0.6" fill="#c3e4ff" class="s" style="animation-delay:2.60s;animation-duration:2.66s"/>
<circle cx="791.8" cy="784.6" r="0.8" fill="#d9c8ff" class="s" style="animation-delay:2.56s;animation-duration:2.66s"/>
<circle cx="48.8" cy="361.2" r="1" fill="#c3e4ff" class="s" style="animation-delay:1.93s;animation-duration:3.95s"/>
<circle cx="319.3" cy="229.1" r="0.6" fill="#d9c8ff" class="s" style="animation-delay:3.59s;animation-duration:3.68s"/>
<circle cx="929.0" cy="901.2" r="1" fill="#fff" class="s" style="animation-delay:0.69s;animation-duration:2.09s"/>
<circle cx="789.2" cy="402.8" r="0.6" fill="#c3e4ff" class="s" style="animation-delay:1.14s;animation-duration:2.92s"/>
<circle cx="833.8" cy="951.2" r="0.6" fill="#c3e4ff" class="s" style="animation-delay:0.81s;animation-duration:3.00s"/>
<circle cx="404.5" cy="52.2" r="0.6" fill="#d9c8ff" class="s" style="animation-delay:0.40s;animation-duration:4.95s"/>
<circle cx="125.4" cy="208.7" r="1" fill="#ffd6ec" class="s" style="animation-delay:2.85s;animation-duration:4.56s"/>
<circle cx="476.1" cy="535.5" r="1.6" fill="#d9c8ff" class="s" style="animation-delay:3.44s;animation-duration:4.94s"/>
<circle cx="490.4" cy="635.0" r="0.6" fill="#c3e4ff" class="s" style="animation-delay:0.55s;animation-duration:4.18s"/>
<circle cx="689.8" cy="1046.1" r="0.6" fill="#d9c8ff" class="s" style="animation-delay:1.96s;animation-duration:4.34s"/>
<circle cx="470.4" cy="255.2" r="0.6" fill="#c3e4ff" class="s" style="animation-delay:2.33s;animation-duration:3.34s"/>
<circle cx="985.2" cy="142.1" r="1.6" fill="#fff" class="s" style="animation-delay:3.69s;animation-duration:4.66s"/>
<circle cx="784.3" cy="1017.7" r="1" fill="#ffd6ec" class="s" style="animation-delay:2.22s;animation-duration:3.68s"/>
<circle cx="513.2" cy="762.8" r="1.6" fill="#c3e4ff" class="s" style="animation-delay:0.91s;animation-duration:2.58s"/>
<circle cx="612.7" cy="331.6" r="1.3" fill="#d9c8ff" class="s" style="animation-delay:0.53s;animation-duration:2.37s"/>
<circle cx="778.6" cy="800.7" r="1" fill="#c3e4ff" class="s" style="animation-delay:2.32s;animation-duration:2.50s"/>
<circle cx="847.5" cy="127.7" r="1.3" fill="#ffd6ec" class="s" style="animation-delay:0.56s;animation-duration:3.14s"/>
<circle cx="310.3" cy="457.4" r="1" fill="#ffd6ec" class="s" style="animation-delay:3.68s;animation-duration:2.81s"/>
<circle cx="932.2" cy="40.6" r="1.3" fill="#d9c8ff" class="s" style="animation-delay:1.04s;animation-duration:2.61s"/>
<circle cx="808.9" cy="391.2" r="1.3" fill="#fff" class="s" style="animation-delay:3.27s;animation-duration:3.15s"/>
<circle cx="203.3" cy="230.5" r="1" fill="#d9c8ff" class="s" style="animation-delay:2.79s;animation-duration:3.10s"/>
<circle cx="766.7" cy="70.9" r="0.8" fill="#c3e4ff" class="s" style="animation-delay:3.55s;animation-duration:3.36s"/>
<circle cx="649.7" cy="707.6" r="1.3" fill="#fff" class="s" style="animation-delay:0.27s;animation-duration:2.46s"/>
<circle cx="803.3" cy="894.3" r="0.6" fill="#d9c8ff" class="s" style="animation-delay:1.52s;animation-duration:4.27s"/>
<circle cx="303.6" cy="981.0" r="1.6" fill="#d9c8ff" class="s" style="animation-delay:1.61s;animation-duration:4.33s"/>
<circle cx="237.5" cy="650.6" r="1.6" fill="#d9c8ff" class="s" style="animation-delay:3.40s;animation-duration:4.01s"/>
<circle cx="704.5" cy="22.2" r="1.6" fill="#c3e4ff" class="s" style="animation-delay:3.76s;animation-duration:4.02s"/>
<circle cx="519.0" cy="922.7" r="1" fill="#c3e4ff" class="s" style="animation-delay:1.59s;animation-duration:2.64s"/>
<circle cx="880.3" cy="824.9" r="0.6" fill="#ffd6ec" class="s" style="animation-delay:3.84s;animation-duration:2.72s"/>
<circle cx="842.5" cy="442.1" r="1" fill="#d9c8ff" class="s" style="animation-delay:3.93s;animation-duration:4.39s"/>
<circle cx="68.7" cy="266.9" r="1.3" fill="#c3e4ff" class="s" style="animation-delay:0.56s;animation-duration:2.14s"/>
<circle cx="315.6" cy="48.2" r="1.3" fill="#ffd6ec" class="s" style="animation-delay:2.15s;animation-duration:3.32s"/>
<circle cx="147.1" cy="24.9" r="1.3" fill="#c3e4ff" class="s" style="animation-delay:1.09s;animation-duration:4.28s"/>
<circle cx="664.5" cy="3.6" r="1" fill="#ffd6ec" class="s" style="animation-delay:0.68s;animation-duration:2.27s"/>
<circle cx="853.3" cy="61.2" r="1.6" fill="#c3e4ff" class="s" style="animation-delay:3.64s;animation-duration:2.97s"/>
<circle cx="390.9" cy="449.3" r="0.6" fill="#c3e4ff" class="s" style="animation-delay:0.16s;animation-duration:4.19s"/>
<circle cx="451.8" cy="431.6" r="1.6" fill="#d9c8ff" class="s" style="animation-delay:1.71s;animation-duration:3.67s"/>
<circle cx="780.2" cy="487.6" r="0.8" fill="#d9c8ff" class="s" style="animation-delay:3.48s;animation-duration:4.61s"/>
<circle cx="131.2" cy="409.7" r="0.8" fill="#d9c8ff" class="s" style="animation-delay:1.36s;animation-duration:4.88s"/>
<circle cx="422.3" cy="336.7" r="1" fill="#c3e4ff" class="s" style="animation-delay:3.28s;animation-duration:3.26s"/>
<circle cx="76.0" cy="700.3" r="1" fill="#ffd6ec" class="s" style="animation-delay:0.47s;animation-duration:4.55s"/>
<circle cx="705.0" cy="333.5" r="1.3" fill="#c3e4ff" class="s" style="animation-delay:0.79s;animation-duration:3.53s"/>
<circle cx="336.4" cy="967.8" r="1.3" fill="#c3e4ff" class="s" style="animation-delay:1.41s;animation-duration:4.07s"/>
<circle cx="482.6" cy="66.7" r="1.6" fill="#d9c8ff" class="s" style="animation-delay:1.25s;animation-duration:4.54s"/>
<circle cx="548.2" cy="831.8" r="0.6" fill="#ffd6ec" class="s" style="animation-delay:2.21s;animation-duration:3.78s"/>
<circle cx="762.8" cy="283.6" r="1.6" fill="#d9c8ff" class="s" style="animation-delay:3.15s;animation-duration:3.78s"/>
<circle cx="541.8" cy="920.0" r="1" fill="#fff" class="s" style="animation-delay:2.58s;animation-duration:2.50s"/>
<circle cx="685.0" cy="153.7" r="1.6" fill="#ffd6ec" class="s" style="animation-delay:1.70s;animation-duration:4.90s"/>
<circle cx="177.6" cy="550.7" r="1.6" fill="#d9c8ff" class="s" style="animation-delay:3.20s;animation-duration:3.46s"/>
<circle cx="204.4" cy="518.2" r="0.6" fill="#c3e4ff" class="s" style="animation-delay:1.49s;animation-duration:4.29s"/>
<circle cx="717.1" cy="519.5" r="1" fill="#ffd6ec" class="s" style="animation-delay:0.83s;animation-duration:2.29s"/>
<circle cx="461.8" cy="533.9" r="0.8" fill="#fff" class="s" style="animation-delay:3.01s;animation-duration:4.72s"/>
<circle cx="598.3" cy="874.6" r="0.6" fill="#fff" class="s" style="animation-delay:0.08s;animation-duration:2.15s"/>
<circle cx="973.0" cy="609.2" r="0.8" fill="#fff" class="s" style="animation-delay:1.48s;animation-duration:3.25s"/>
<circle cx="515.5" cy="1035.3" r="1.3" fill="#fff" class="s" style="animation-delay:0.26s;animation-duration:3.21s"/>
<circle cx="514.0" cy="174.0" r="0.6" fill="#d9c8ff" class="s" style="animation-delay:0.30s;animation-duration:2.43s"/>
<circle cx="966.8" cy="926.5" r="0.6" fill="#d9c8ff" class="s" style="animation-delay:0.98s;animation-duration:4.56s"/>
<circle cx="959.2" cy="507.8" r="1" fill="#c3e4ff" class="s" style="animation-delay:1.71s;animation-duration:4.98s"/>
<circle cx="645.6" cy="1050.1" r="0.6" fill="#ffd6ec" class="s" style="animation-delay:3.69s;animation-duration:3.70s"/>
<circle cx="154.2" cy="743.0" r="0.6" fill="#d9c8ff" class="s" style="animation-delay:2.64s;animation-duration:3.47s"/>
<circle cx="346.6" cy="172.5" r="1.3" fill="#d9c8ff" class="s" style="animation-delay:3.76s;animation-duration:2.83s"/>
<circle cx="359.2" cy="1028.8" r="1" fill="#c3e4ff" class="s" style="animation-delay:1.37s;animation-duration:3.94s"/>
<circle cx="205.1" cy="446.1" r="1.6" fill="#fff" class="s" style="animation-delay:0.07s;animation-duration:3.60s"/>
<circle cx="529.5" cy="637.9" r="1.3" fill="#c3e4ff" class="s" style="animation-delay:0.32s;animation-duration:3.78s"/>
<circle cx="586.1" cy="731.9" r="1.3" fill="#c3e4ff" class="s" style="animation-delay:2.20s;animation-duration:4.30s"/>
<circle cx="35.0" cy="258.0" r="0.6" fill="#c3e4ff" class="s" style="animation-delay:3.77s;animation-duration:2.85s"/>
<circle cx="964.6" cy="299.9" r="1.3" fill="#ffd6ec" class="s" style="animation-delay:0.64s;animation-duration:3.81s"/>
<circle cx="393.5" cy="736.5" r="0.8" fill="#ffd6ec" class="s" style="animation-delay:2.39s;animation-duration:4.22s"/>
<circle cx="535.3" cy="367.9" r="1" fill="#d9c8ff" class="s" style="animation-delay:2.78s;animation-duration:3.88s"/>
<circle cx="108.8" cy="967.4" r="1.3" fill="#fff" class="s" style="animation-delay:1.86s;animation-duration:3.67s"/>
<circle cx="446.9" cy="1025.1" r="1.3" fill="#c3e4ff" class="s" style="animation-delay:3.09s;animation-duration:4.80s"/>
<circle cx="175.6" cy="365.1" r="0.8" fill="#d9c8ff" class="s" style="animation-delay:1.49s;animation-duration:4.64s"/>
<circle cx="124.8" cy="272.3" r="0.6" fill="#fff" class="s" style="animation-delay:2.68s;animation-duration:3.46s"/>
<circle cx="307.6" cy="472.5" r="1" fill="#fff" class="s" style="animation-delay:2.84s;animation-duration:4.28s"/>
<circle cx="383.5" cy="933.8" r="0.6" fill="#fff" class="s" style="animation-delay:2.26s;animation-duration:2.46s"/>
<circle cx="123.5" cy="600.1" r="0.6" fill="#fff" class="s" style="animation-delay:0.30s;animation-duration:2.40s"/>
<circle cx="378.5" cy="892.6" r="1" fill="#d9c8ff" class="s" style="animation-delay:0.49s;animation-duration:4.30s"/>
<circle cx="812.1" cy="1070.8" r="0.6" fill="#ffd6ec" class="s" style="animation-delay:3.51s;animation-duration:4.53s"/>
<circle cx="877.3" cy="1074.9" r="1.3" fill="#ffd6ec" class="s" style="animation-delay:2.61s;animation-duration:4.36s"/>
<circle cx="882.6" cy="606.2" r="0.6" fill="#fff" class="s" style="animation-delay:2.79s;animation-duration:4.49s"/>
<circle cx="988.1" cy="650.4" r="0.8" fill="#ffd6ec" class="s" style="animation-delay:0.59s;animation-duration:3.36s"/>
<circle cx="151.0" cy="610.2" r="0.6" fill="#c3e4ff" class="s" style="animation-delay:2.50s;animation-duration:3.12s"/>
<circle cx="750.4" cy="518.0" r="1.6" fill="#d9c8ff" class="s" style="animation-delay:2.65s;animation-duration:3.81s"/>
<circle cx="396.7" cy="378.1" r="1.3" fill="#fff" class="s" style="animation-delay:0.60s;animation-duration:2.01s"/>
<circle cx="156.8" cy="808.4" r="0.6" fill="#c3e4ff" class="s" style="animation-delay:0.54s;animation-duration:4.33s"/>
<circle cx="675.3" cy="904.0" r="0.8" fill="#d9c8ff" class="s" style="animation-delay:0.08s;animation-duration:4.64s"/>
<circle cx="666.5" cy="427.2" r="1" fill="#d9c8ff" class="s" style="animation-delay:0.84s;animation-duration:2.95s"/>
<circle cx="99.6" cy="675.8" r="1.3" fill="#d9c8ff" class="s" style="animation-delay:3.45s;animation-duration:3.93s"/>
<circle cx="543.0" cy="1009.8" r="0.8" fill="#c3e4ff" class="s" style="animation-delay:2.87s;animation-duration:4.59s"/>
<circle cx="46.2" cy="321.8" r="1" fill="#d9c8ff" class="s" style="animation-delay:2.38s;animation-duration:2.75s"/>
<circle cx="355.9" cy="542.6" r="1.6" fill="#fff" class="s" style="animation-delay:2.51s;animation-duration:4.46s"/>
<circle cx="562.5" cy="227.4" r="1.3" fill="#d9c8ff" class="s" style="animation-delay:0.29s;animation-duration:4.49s"/>
<circle cx="310.5" cy="989.6" r="1" fill="#c3e4ff" class="s" style="animation-delay:3.80s;animation-duration:4.17s"/>
<circle cx="394.8" cy="753.9" r="0.6" fill="#fff" class="s" style="animation-delay:2.38s;animation-duration:4.24s"/>
<circle cx="223.0" cy="457.2" r="1.3" fill="#c3e4ff" class="s" style="animation-delay:2.45s;animation-duration:4.23s"/>
<circle cx="830.1" cy="113.7" r="0.6" fill="#ffd6ec" class="s" style="animation-delay:2.48s;animation-duration:4.69s"/>
<circle cx="386.2" cy="466.2" r="1.6" fill="#c3e4ff" class="s" style="animation-delay:2.71s;animation-duration:3.60s"/>
<circle cx="680.0" cy="102.3" r="0.8" fill="#c3e4ff" class="s" style="animation-delay:3.64s;animation-duration:3.25s"/>
<circle cx="976.9" cy="549.3" r="1" fill="#ffd6ec" class="s" style="animation-delay:3.51s;animation-duration:4.20s"/>
<circle cx="861.4" cy="620.6" r="0.6" fill="#d9c8ff" class="s" style="animation-delay:1.61s;animation-duration:3.53s"/>
<circle cx="718.0" cy="690.7" r="1" fill="#ffd6ec" class="s" style="animation-delay:3.00s;animation-duration:3.93s"/>
<circle cx="642.4" cy="455.7" r="0.8" fill="#c3e4ff" class="s" style="animation-delay:2.37s;animation-duration:2.50s"/>
<circle cx="865.7" cy="551.7" r="1.6" fill="#d9c8ff" class="s" style="animation-delay:0.81s;animation-duration:2.23s"/>
<circle cx="814.7" cy="744.2" r="1.6" fill="#d9c8ff" class="s" style="animation-delay:3.65s;animation-duration:2.55s"/>
<circle cx="729.0" cy="541.1" r="0.6" fill="#ffd6ec" class="s" style="animation-delay:1.30s;animation-duration:4.45s"/>
<circle cx="675.6" cy="985.4" r="0.6" fill="#fff" class="s" style="animation-delay:1.49s;animation-duration:2.09s"/>
<circle cx="910.6" cy="752.2" r="1" fill="#c3e4ff" class="s" style="animation-delay:0.56s;animation-duration:2.30s"/>
<circle cx="945.6" cy="262.7" r="1.3" fill="#c3e4ff" class="s" style="animation-delay:3.35s;animation-duration:4.29s"/>
<circle cx="247.2" cy="287.9" r="1" fill="#d9c8ff" class="s" style="animation-delay:1.51s;animation-duration:2.43s"/>
<circle cx="304.1" cy="346.9" r="1" fill="#c3e4ff" class="s" style="animation-delay:3.42s;animation-duration:2.59s"/>
<circle cx="348.0" cy="307.8" r="1.6" fill="#d9c8ff" class="s" style="animation-delay:3.18s;animation-duration:4.14s"/>
<circle cx="504.0" cy="702.6" r="1" fill="#fff" class="s" style="animation-delay:1.10s;animation-duration:2.68s"/>
<circle cx="599.1" cy="220.5" r="1.6" fill="#c3e4ff" class="s" style="animation-delay:3.22s;animation-duration:2.14s"/>
<circle cx="740.5" cy="118.2" r="0.8" fill="#fff" class="s" style="animation-delay:3.95s;animation-duration:4.94s"/>
<circle cx="436.9" cy="976.1" r="1.3" fill="#c3e4ff" class="s" style="animation-delay:0.71s;animation-duration:3.37s"/>
<circle cx="265.2" cy="318.3" r="1.3" fill="#d9c8ff" class="s" style="animation-delay:0.56s;animation-duration:2.46s"/>
<circle cx="967.5" cy="819.6" r="1.6" fill="#ffd6ec" class="s" style="animation-delay:3.96s;animation-duration:4.04s"/>
<circle cx="244.1" cy="494.8" r="1.3" fill="#c3e4ff" class="s" style="animation-delay:3.50s;animation-duration:3.60s"/>
<circle cx="564.7" cy="97.7" r="1.6" fill="#fff" class="s" style="animation-delay:1.97s;animation-duration:3.95s"/>
<circle cx="81.1" cy="1056.1" r="1.6" fill="#d9c8ff" class="s" style="animation-delay:2.96s;animation-duration:3.37s"/>
<circle cx="135.2" cy="262.8" r="1" fill="#c3e4ff" class="s" style="animation-delay:0.03s;animation-duration:4.53s"/>
<circle cx="588.2" cy="305.4" r="1.3" fill="#fff" class="s" style="animation-delay:3.61s;animation-duration:4.89s"/>
<circle cx="638.1" cy="383.2" r="1.6" fill="#ffd6ec" class="s" style="animation-delay:0.73s;animation-duration:2.67s"/>
<circle cx="971.1" cy="474.8" r="1.3" fill="#ffd6ec" class="s" style="animation-delay:3.55s;animation-duration:4.39s"/>
<circle cx="51.9" cy="443.1" r="1.6" fill="#ffd6ec" class="s" style="animation-delay:0.73s;animation-duration:2.28s"/>
<circle cx="385.0" cy="509.0" r="1.3" fill="#ffd6ec" class="s" style="animation-delay:2.78s;animation-duration:3.74s"/>
<circle cx="727.3" cy="21.7" r="1" fill="#d9c8ff" class="s" style="animation-delay:0.82s;animation-duration:3.17s"/>
<circle cx="723.4" cy="685.1" r="0.6" fill="#c3e4ff" class="s" style="animation-delay:3.44s;animation-duration:3.83s"/>
<circle cx="495.7" cy="1009.7" r="1" fill="#c3e4ff" class="s" style="animation-delay:3.91s;animation-duration:3.77s"/>
<circle cx="941.9" cy="100.4" r="1.6" fill="#ffd6ec" class="s" style="animation-delay:1.26s;animation-duration:4.45s"/>
<circle cx="904.3" cy="924.3" r="1.3" fill="#c3e4ff" class="s" style="animation-delay:0.29s;animation-duration:4.92s"/>
<circle cx="211.2" cy="888.0" r="1.6" fill="#fff" class="s" style="animation-delay:2.93s;animation-duration:4.12s"/>
<circle cx="241.0" cy="414.8" r="1.3" fill="#fff" class="s" style="animation-delay:2.81s;animation-duration:4.04s"/>
<circle cx="982.7" cy="577.9" r="1" fill="#fff" class="s" style="animation-delay:3.69s;animation-duration:2.51s"/>
<circle cx="499.7" cy="978.3" r="1.6" fill="#ffd6ec" class="s" style="animation-delay:3.04s;animation-duration:3.15s"/>
<circle cx="577.6" cy="724.7" r="1.6" fill="#c3e4ff" class="s" style="animation-delay:3.04s;animation-duration:4.55s"/>
<circle cx="256.7" cy="771.8" r="0.6" fill="#fff" class="s" style="animation-delay:0.09s;animation-duration:3.65s"/>
<circle cx="991.8" cy="941.4" r="1" fill="#fff" class="s" style="animation-delay:3.65s;animation-duration:3.23s"/>
<circle cx="549.0" cy="317.0" r="0.6" fill="#ffd6ec" class="s" style="animation-delay:3.09s;animation-duration:3.77s"/>
<circle cx="842.5" cy="288.8" r="1.6" fill="#c3e4ff" class="s" style="animation-delay:0.10s;animation-duration:2.18s"/>
<circle cx="343.1" cy="309.4" r="0.8" fill="#d9c8ff" class="s" style="animation-delay:3.57s;animation-duration:2.82s"/>
<circle cx="14.3" cy="674.2" r="0.6" fill="#d9c8ff" class="s" style="animation-delay:1.72s;animation-duration:4.99s"/>
<circle cx="987.7" cy="767.4" r="1.3" fill="#fff" class="s" style="animation-delay:2.79s;animation-duration:2.73s"/>
<circle cx="810.2" cy="617.8" r="0.8" fill="#ffd6ec" class="s" style="animation-delay:2.60s;animation-duration:4.80s"/>
<circle cx="97.4" cy="932.2" r="1.3" fill="#fff" class="s" style="animation-delay:0.58s;animation-duration:4.39s"/>
<circle cx="462.0" cy="1016.6" r="1.6" fill="#d9c8ff" class="s" style="animation-delay:3.86s;animation-duration:2.45s"/>
<circle cx="210.8" cy="162.2" r="1" fill="#d9c8ff" class="s" style="animation-delay:1.76s;animation-duration:2.05s"/>
<circle cx="652.2" cy="20.3" r="0.6" fill="#c3e4ff" class="s" style="animation-delay:2.47s;animation-duration:3.33s"/>
<circle cx="145.9" cy="1050.1" r="1.6" fill="#ffd6ec" class="s" style="animation-delay:2.52s;animation-duration:4.16s"/>
<circle cx="831.7" cy="128.1" r="0.8" fill="#fff" class="s" style="animation-delay:0.11s;animation-duration:3.05s"/>
<circle cx="777.1" cy="783.2" r="0.8" fill="#ffd6ec" class="s" style="animation-delay:3.88s;animation-duration:2.04s"/>
<circle cx="980.2" cy="520.3" r="0.6" fill="#fff" class="s" style="animation-delay:0.73s;animation-duration:4.99s"/>
<circle cx="11.1" cy="166.3" r="0.6" fill="#ffd6ec" class="s" style="animation-delay:0.63s;animation-duration:2.56s"/>
<circle cx="338.2" cy="355.1" r="1.3" fill="#c3e4ff" class="s" style="animation-delay:0.73s;animation-duration:4.59s"/>
<circle cx="749.6" cy="548.0" r="0.6" fill="#c3e4ff" class="s" style="animation-delay:3.64s;animation-duration:4.78s"/>
<circle cx="30.5" cy="394.3" r="1.3" fill="#c3e4ff" class="s" style="animation-delay:2.94s;animation-duration:4.81s"/>
<circle cx="53.0" cy="748.7" r="0.8" fill="#d9c8ff" class="s" style="animation-delay:2.61s;animation-duration:2.57s"/>
<circle cx="146.2" cy="911.6" r="1" fill="#c3e4ff" class="s" style="animation-delay:1.72s;animation-duration:2.76s"/>
<circle cx="70.1" cy="1020.1" r="0.6" fill="#ffd6ec" class="s" style="animation-delay:0.05s;animation-duration:3.40s"/>
<circle cx="107.1" cy="659.0" r="1" fill="#ffd6ec" class="s" style="animation-delay:3.11s;animation-duration:2.49s"/>
<circle cx="498.7" cy="442.6" r="0.8" fill="#d9c8ff" class="s" style="animation-delay:1.31s;animation-duration:2.16s"/>
<circle cx="977.4" cy="66.2" r="0.6" fill="#d9c8ff" class="s" style="animation-delay:2.02s;animation-duration:2.60s"/>
<circle cx="509.6" cy="161.9" r="0.6" fill="#fff" class="s" style="animation-delay:1.13s;animation-duration:4.78s"/>
<circle cx="580.4" cy="367.9" r="0.6" fill="#ffd6ec" class="s" style="animation-delay:1.94s;animation-duration:3.29s"/>
<circle cx="144.5" cy="906.2" r="1.3" fill="#c3e4ff" class="s" style="animation-delay:0.45s;animation-duration:2.39s"/>
<circle cx="200.8" cy="1022.5" r="0.6" fill="#fff" class="s" style="animation-delay:1.91s;animation-duration:4.72s"/>
<circle cx="672.9" cy="16.5" r="1" fill="#ffd6ec" class="s" style="animation-delay:2.56s;animation-duration:2.22s"/>
<circle cx="566.6" cy="6.6" r="1" fill="#c3e4ff" class="s" style="animation-delay:2.53s;animation-duration:2.17s"/>
<circle cx="697.5" cy="934.8" r="1.6" fill="#ffd6ec" class="s" style="animation-delay:2.98s;animation-duration:3.85s"/>
<circle cx="694.7" cy="731.1" r="1.6" fill="#c3e4ff" class="s" style="animation-delay:2.82s;animation-duration:3.28s"/>
<circle cx="319.2" cy="636.8" r="1.3" fill="#ffd6ec" class="s" style="animation-delay:1.73s;animation-duration:3.39s"/>
<circle cx="733.9" cy="754.0" r="0.8" fill="#ffd6ec" class="s" style="animation-delay:2.65s;animation-duration:3.23s"/>
<circle cx="364.8" cy="683.1" r="1.3" fill="#d9c8ff" class="s" style="animation-delay:3.05s;animation-duration:2.25s"/>
<circle cx="679.9" cy="747.5" r="1.6" fill="#fff" class="s" style="animation-delay:2.99s;animation-duration:4.12s"/>
<circle cx="475.7" cy="118.2" r="1" fill="#c3e4ff" class="s" style="animation-delay:3.25s;animation-duration:4.03s"/>
<circle cx="390.8" cy="365.6" r="0.8" fill="#ffd6ec" class="s" style="animation-delay:1.60s;animation-duration:3.73s"/>
<circle cx="370.0" cy="72.0" r="0.6" fill="#c3e4ff" class="s" style="animation-delay:0.68s;animation-duration:4.85s"/>
<circle cx="341.1" cy="159.3" r="1.3" fill="#fff" class="s" style="animation-delay:1.76s;animation-duration:3.46s"/>
<circle cx="17.1" cy="16.2" r="0.6" fill="#c3e4ff" class="s" style="animation-delay:2.87s;animation-duration:4.06s"/>
<circle cx="405.7" cy="326.1" r="1.6" fill="#fff" class="s" style="animation-delay:2.41s;animation-duration:3.88s"/>
<circle cx="620.6" cy="537.8" r="0.8" fill="#fff" class="s" style="animation-delay:0.75s;animation-duration:4.47s"/>
<circle cx="337.5" cy="3.8" r="0.8" fill="#ffd6ec" class="s" style="animation-delay:1.78s;animation-duration:4.81s"/>
<text x="500" y="70" text-anchor="middle" font-size="24" font-weight="bold" letter-spacing="6" fill="url(#txt)">CURRENT POWER</text><path d="M341.4,54.32 Q341.4,62.32 349.4,62.32 Q341.4,62.32 341.4,70.32 Q341.4,62.32 333.4,62.32 Q341.4,62.32 341.4,54.32 Z" fill="#ff3399"/><path d="M658.6,54.32 Q658.6,62.32 666.6,62.32 Q658.6,62.32 658.6,70.32 Q658.6,62.32 650.6,62.32 Q658.6,62.32 658.6,54.32 Z" fill="#ff3399"/><rect x="179.39999999999998" y="61.57" width="150" height="1.5" fill="url(#fadeL)"/><rect x="670.6" y="61.57" width="150" height="1.5" fill="url(#fadeR)"/><rect x="100" y="100" width="800" height="230" rx="18" fill="#120726" stroke="url(#bar)" stroke-width="2"/><rect x="366" y="130" width="1.5" height="170" fill="#3a2270"/><rect x="633" y="130" width="1.5" height="170" fill="#3a2270"/><text x="233" y="205" text-anchor="middle" font-size="60" font-weight="bold" fill="#ff3399">467</text><text x="233" y="250" text-anchor="middle" font-size="20" fill="#ff7fc4">Total Contributions</text><text x="233" y="286" text-anchor="middle" font-size="16" fill="#7dd3fc">Jan 21, 2025 - Present</text><circle cx="500" cy="190" r="54" fill="none" stroke="#ff3399" stroke-width="7" stroke-linecap="round" stroke-dasharray="300 39.29" transform="rotate(-69.2 500 190)" class="glow"/><path transform="translate(500,138)" d="M0,-14 C9,-3 10,3 0,11 C-10,3 -9,-3 0,-14 Z" fill="#ff3399" class="glow"/><text x="500" y="208" text-anchor="middle" font-size="48" font-weight="bold" fill="#ffd166">0</text><text x="500" y="268" text-anchor="middle" font-size="20" font-weight="bold" fill="#ffd166">Current Streak</text><text x="500" y="302" text-anchor="middle" font-size="16" fill="#7dd3fc">Oct 3</text><text x="767" y="205" text-anchor="middle" font-size="60" font-weight="bold" fill="#ff3399">17</text><text x="767" y="250" text-anchor="middle" font-size="20" fill="#ff7fc4">Longest Streak</text><text x="767" y="286" text-anchor="middle" font-size="16" fill="#7dd3fc">Apr 16 - May 2</text><text x="500" y="415" text-anchor="middle" font-size="24" font-weight="bold" letter-spacing="6" fill="url(#txt)">TECH ORBIT</text><path d="M372.0,399.32 Q372.0,407.32 380.0,407.32 Q372.0,407.32 372.0,415.32 Q372.0,407.32 364.0,407.32 Q372.0,407.32 372.0,399.32 Z" fill="#ff3399"/><path d="M628.0,399.32 Q628.0,407.32 636.0,407.32 Q628.0,407.32 628.0,415.32 Q628.0,407.32 620.0,407.32 Q628.0,407.32 628.0,399.32 Z" fill="#ff3399"/><rect x="210.0" y="406.57" width="150" height="1.5" fill="url(#fadeL)"/><rect x="640.0" y="406.57" width="150" height="1.5" fill="url(#fadeR)"/><path d="M 370,655 A 130 52.0 0 1 1 630,655 A 130 52.0 0 1 1 370,655" fill="none" stroke="#c77dff" stroke-width="1" stroke-dasharray="2 7" opacity=".35"/><path d="M 285,655 A 215 86.0 0 1 1 715,655 A 215 86.0 0 1 1 285,655" fill="none" stroke="#c77dff" stroke-width="1" stroke-dasharray="2 7" opacity=".35"/><path d="M 195,655 A 305 122.0 0 1 1 805,655 A 305 122.0 0 1 1 195,655" fill="none" stroke="#c77dff" stroke-width="1" stroke-dasharray="2 7" opacity=".35"/><path d="M 105,655 A 395 158.0 0 1 1 895,655 A 395 158.0 0 1 1 105,655" fill="none" stroke="#c77dff" stroke-width="1" stroke-dasharray="2 7" opacity=".35"/><path d="M 30,655 A 470 188.0 0 1 1 970,655 A 470 188.0 0 1 1 30,655" fill="none" stroke="#c77dff" stroke-width="1" stroke-dasharray="2 7" opacity=".35"/><circle cx="500" cy="655" r="44" fill="url(#sun)" class="glow"/><text x="500" y="661" text-anchor="middle" font-size="16" font-weight="bold" fill="#fff" letter-spacing="2">NIX</text><g><animateMotion dur="18s" begin="-2s" repeatCount="indefinite" path="M 370,655 A 130 52.0 0 1 1 630,655 A 130 52.0 0 1 1 370,655"/><circle r="11" fill="#4b8bbe" class="glow"/><circle r="4" cx="-3" cy="-3" fill="#fff" opacity=".45"/><text y="30" text-anchor="middle" font-size="15" font-weight="bold" fill="#fff" letter-spacing="1">Python</text></g><g><animateMotion dur="26s" begin="-6s" repeatCount="indefinite" path="M 285,655 A 215 86.0 0 1 1 715,655 A 215 86.0 0 1 1 285,655"/><circle r="11" fill="#a8b9cc" class="glow"/><circle r="4" cx="-3" cy="-3" fill="#fff" opacity=".45"/><text y="30" text-anchor="middle" font-size="15" font-weight="bold" fill="#fff" letter-spacing="1">C</text></g><g><animateMotion dur="36s" begin="-11s" repeatCount="indefinite" path="M 195,655 A 305 122.0 0 1 1 805,655 A 305 122.0 0 1 1 195,655"/><circle r="11" fill="#659ad2" class="glow"/><circle r="4" cx="-3" cy="-3" fill="#fff" opacity=".45"/><text y="30" text-anchor="middle" font-size="15" font-weight="bold" fill="#fff" letter-spacing="1">C++</text></g><g><animateMotion dur="48s" begin="-4s" repeatCount="indefinite" path="M 105,655 A 395 158.0 0 1 1 895,655 A 395 158.0 0 1 1 105,655"/><circle r="11" fill="#fcc624" class="glow"/><circle r="4" cx="-3" cy="-3" fill="#fff" opacity=".45"/><text y="30" text-anchor="middle" font-size="15" font-weight="bold" fill="#fff" letter-spacing="1">Linux</text></g><g><animateMotion dur="62s" begin="-20s" repeatCount="indefinite" path="M 30,655 A 470 188.0 0 1 1 970,655 A 470 188.0 0 1 1 30,655"/><circle r="11" fill="#ff5a4d" class="glow"/><circle r="4" cx="-3" cy="-3" fill="#fff" opacity=".45"/><text y="30" text-anchor="middle" font-size="15" font-weight="bold" fill="#fff" letter-spacing="1">ESP32</text></g><text x="500" y="925" text-anchor="middle" font-size="18" font-weight="bold" letter-spacing="4" fill="url(#txt)">LATE NIGHT CODER | FUTURE ENGINEER</text><path d="M222.4,911.24 Q222.4,919.24 230.4,919.24 Q222.4,919.24 222.4,927.24 Q222.4,919.24 214.4,919.24 Q222.4,919.24 222.4,911.24 Z" fill="#ff3399"/><path d="M777.6,911.24 Q777.6,919.24 785.6,919.24 Q777.6,919.24 777.6,927.24 Q777.6,919.24 769.6,919.24 Q777.6,919.24 777.6,911.24 Z" fill="#ff3399"/><rect x="60.400000000000006" y="918.49" width="150" height="1.5" fill="url(#fadeL)"/><rect x="789.6" y="918.49" width="150" height="1.5" fill="url(#fadeR)"/><text x="500" y="970" text-anchor="middle" font-size="20" font-style="italic" fill="#c9b6ff">"Everything is an algorithm if you look closely enough."</text><text x="500" y="1045" text-anchor="middle" font-size="24" font-weight="bold" letter-spacing="6" fill="url(#txt)">CONNECT</text><path d="M402.6,1029.32 Q402.6,1037.32 410.6,1037.32 Q402.6,1037.32 402.6,1045.32 Q402.6,1037.32 394.6,1037.32 Q402.6,1037.32 402.6,1029.32 Z" fill="#ff3399"/><path d="M597.4,1029.32 Q597.4,1037.32 605.4,1037.32 Q597.4,1037.32 597.4,1045.32 Q597.4,1037.32 589.4,1037.32 Q597.4,1037.32 597.4,1029.32 Z" fill="#ff3399"/><rect x="240.60000000000002" y="1036.57" width="150" height="1.5" fill="url(#fadeL)"/><rect x="609.4" y="1036.57" width="150" height="1.5" fill="url(#fadeR)"/>

<rect x="0" y="0" width="2" height="1075" fill="#5a26b8"/><rect x="998" y="0" width="2" height="1075" fill="#5a26b8"/>
</svg>