<svg xmlns="http://www.w3.org/2000/svg" viewBox="0 0 1000 334" width="1000" height="334">
<style>
text{font-family:'Courier New',Consolas,monospace}
.s{animation-name:tw;animation-iteration-count:infinite;animation-timing-function:ease-in-out}
@keyframes tw{0%,100%{opacity:.12}50%{opacity:1}}
.glow{filter:url(#glow)}
</style>
<defs>
<filter id="glow" x="-40%" y="-40%" width="180%" height="180%"><feGaussianBlur stdDeviation="4" result="b"/><feMerge><feMergeNode in="b"/><feMergeNode in="SourceGraphic"/></feMerge></filter>
<linearGradient id="txt" x1="0" y1="0" x2="1" y2="0"><stop offset="0" stop-color="#ff3399"/><stop offset=".5" stop-color="#c77dff"/><stop offset="1" stop-color="#7b9cff"/></linearGradient>
<linearGradient id="bar" x1="0" y1="0" x2="1" y2="0"><stop offset="0" stop-color="#ff3399"/><stop offset="1" stop-color="#7b2ff7"/></linearGradient>
<linearGradient id="fadeL" x1="0" y1="0" x2="1" y2="0"><stop offset="0" stop-color="#7b2ff7" stop-opacity="0"/><stop offset="1" stop-color="#c77dff" stop-opacity=".9"/></linearGradient>
<linearGradient id="fadeR" x1="0" y1="0" x2="1" y2="0"><stop offset="0" stop-color="#c77dff" stop-opacity=".9"/><stop offset="1" stop-color="#7b2ff7" stop-opacity="0"/></linearGradient>
<radialGradient id="nebV"><stop offset="0" stop-color="#7b2ff7" stop-opacity=".35"/><stop offset="1" stop-color="#7b2ff7" stop-opacity="0"/></radialGradient>
</defs>
<rect width="1000" height="334" fill="#0a0418"/>
<ellipse cx="500" cy="116" rx="310" ry="120" fill="url(#nebV)"/>
<circle cx="950.9" cy="46.9" r="0.6" fill="#c3e4ff" class="s" style="animation-delay:0.74s;animation-duration:2.36s"/>
<circle cx="649.0" cy="115.4" r="0.6" fill="#ffd6ec" class="s" style="animation-delay:1.08s;animation-duration:2.15s"/>
<circle cx="968.5" cy="59.8" r="1.6" fill="#c3e4ff" class="s" style="animation-delay:2.83s;animation-duration:2.15s"/>
<circle cx="875.3" cy="196.9" r="1" fill="#c3e4ff" class="s" style="animation-delay:0.76s;animation-duration:4.55s"/>
<circle cx="581.5" cy="313.3" r="1.6" fill="#fff" class="s" style="animation-delay:2.79s;animation-duration:3.84s"/>
<circle cx="262.3" cy="319.5" r="1" fill="#ffd6ec" class="s" style="animation-delay:1.12s;animation-duration:2.81s"/>
<circle cx="688.8" cy="144.3" r="1" fill="#fff" class="s" style="animation-delay:1.68s;animation-duration:2.75s"/>
<circle cx="287.7" cy="294.7" r="1.3" fill="#ffd6ec" class="s" style="animation-delay:1.23s;animation-duration:3.12s"/>
<circle cx="581.3" cy="99.3" r="1.6" fill="#c3e4ff" class="s" style="animation-delay:3.03s;animation-duration:4.70s"/>
<circle cx="428.5" cy="30.2" r="1.3" fill="#d9c8ff" class="s" style="animation-delay:0.39s;animation-duration:4.34s"/>
<circle cx="65.1" cy="281.0" r="0.8" fill="#ffd6ec" class="s" style="animation-delay:1.60s;animation-duration:2.29s"/>
<circle cx="889.2" cy="57.2" r="1.6" fill="#c3e4ff" class="s" style="animation-delay:1.40s;animation-duration:2.98s"/>
<circle cx="359.5" cy="63.9" r="0.6" fill="#fff" class="s" style="animation-delay:2.14s;animation-duration:4.39s"/>
<circle cx="644.7" cy="67.3" r="0.6" fill="#fff" class="s" style="animation-delay:0.78s;animation-duration:2.37s"/>
<circle cx="153.2" cy="196.1" r="0.6" fill="#fff" class="s" style="animation-delay:1.99s;animation-duration:3.57s"/>
<circle cx="583.2" cy="331.1" r="1.3" fill="#c3e4ff" class="s" style="animation-delay:2.91s;animation-duration:3.93s"/>
<circle cx="356.1" cy="261.9" r="1.6" fill="#d9c8ff" class="s" style="animation-delay:3.77s;animation-duration:2.05s"/>
<circle cx="500.0" cy="211.9" r="1" fill="#fff" class="s" style="animation-delay:0.69s;animation-duration:4.08s"/>
<circle cx="435.4" cy="89.8" r="0.6" fill="#fff" class="s" style="animation-delay:3.87s;animation-duration:3.06s"/>
<circle cx="124.2" cy="72.3" r="1" fill="#c3e4ff" class="s" style="animation-delay:3.46s;animation-duration:2.54s"/>
<circle cx="279.9" cy="32.5" r="1.3" fill="#ffd6ec" class="s" style="animation-delay:1.61s;animation-duration:2.35s"/>
<circle cx="901.6" cy="175.3" r="0.8" fill="#fff" class="s" style="animation-delay:0.95s;animation-duration:4.52s"/>
<circle cx="622.6" cy="68.5" r="1.3" fill="#c3e4ff" class="s" style="animation-delay:0.20s;animation-duration:4.07s"/>
<circle cx="420.7" cy="84.8" r="0.8" fill="#fff" class="s" style="animation-delay:1.07s;animation-duration:2.20s"/>
<circle cx="663.1" cy="52.7" r="1" fill="#fff" class="s" style="animation-delay:0.12s;animation-duration:2.48s"/>
<circle cx="283.5" cy="282.9" r="0.6" fill="#d9c8ff" class="s" style="animation-delay:3.07s;animation-duration:2.01s"/>
<circle cx="629.9" cy="329.2" r="0.8" fill="#c3e4ff" class="s" style="animation-delay:2.14s;animation-duration:2.42s"/>
<circle cx="344.8" cy="288.5" r="0.6" fill="#c3e4ff" class="s" style="animation-delay:2.43s;animation-duration:2.32s"/>
<circle cx="840.5" cy="318.8" r="1.6" fill="#d9c8ff" class="s" style="animation-delay:1.12s;animation-duration:4.53s"/>
<circle cx="266.9" cy="86.6" r="1.6" fill="#ffd6ec" class="s" style="animation-delay:1.39s;animation-duration:4.38s"/>
<circle cx="495.8" cy="167.0" r="0.8" fill="#ffd6ec" class="s" style="animation-delay:2.00s;animation-duration:3.03s"/>
<circle cx="869.5" cy="25.9" r="1.6" fill="#ffd6ec" class="s" style="animation-delay:2.83s;animation-duration:2.26s"/>
<circle cx="914.2" cy="113.0" r="0.6" fill="#ffd6ec" class="s" style="animation-delay:0.79s;animation-duration:3.09s"/>
<circle cx="945.5" cy="0.2" r="1" fill="#fff" class="s" style="animation-delay:0.45s;animation-duration:3.52s"/>
<circle cx="58.6" cy="211.2" r="0.6" fill="#fff" class="s" style="animation-delay:2.28s;animation-duration:4.76s"/>
<circle cx="261.5" cy="101.2" r="1" fill="#c3e4ff" class="s" style="animation-delay:2.30s;animation-duration:3.58s"/>
<circle cx="548.2" cy="107.6" r="0.6" fill="#ffd6ec" class="s" style="animation-delay:3.20s;animation-duration:3.96s"/>
<circle cx="324.2" cy="94.0" r="0.8" fill="#ffd6ec" class="s" style="animation-delay:0.23s;animation-duration:4.78s"/>
<circle cx="301.6" cy="8.0" r="1" fill="#fff" class="s" style="animation-delay:0.41s;animation-duration:3.34s"/>
<circle cx="334.9" cy="58.6" r="1.3" fill="#d9c8ff" class="s" style="animation-delay:1.66s;animation-duration:3.06s"/>
<rect x="0" y="0" width="2" height="334" fill="#5a26b8"/><rect x="998" y="0" width="2" height="334" fill="#5a26b8"/><rect x="250.0" y="76" width="500.0" height="176" rx="18" fill="#120726" stroke="url(#bar)" stroke-width="2"/><path transform="translate(296.0,134) scale(0.9)" d="M6,-22 L-12,4 L-1,4 L-6,22 L12,-4 L1,-4 Z" fill="#ffd166" class="glow"/><text x="332.0" y="140" font-size="30.0" font-weight="bold" fill="#ff3399">ProstirBot</text><text x="332.0" y="172" font-size="13.0" fill="#c9b6ff">Empowers people by finding educational, career,</text><text x="332.0" y="193" font-size="13.0" fill="#c9b6ff">and community opportunities in their region and</text><rect x="332.0" y="218" width="72" height="24" rx="4" fill="#3a3350"/><rect x="404.0" y="218" width="112" height="24" rx="4" fill="#ff69b4"/><rect x="398.0" y="218" width="8" height="24" fill="#ff69b4"/><text x="368.0" y="235" text-anchor="middle" font-size="12" font-weight="bold" fill="#fff">STATUS</text><text x="460.0" y="235" text-anchor="middle" font-size="12" font-weight="bold" fill="#fff">In Progress</text><rect x="332.0" y="250" width="56" height="24" rx="4" fill="#3a3350"/><rect x="388.0" y="250" width="160" height="24" rx="4" fill="#7b2ff7"/><rect x="382.0" y="250" width="8" height="24" fill="#7b2ff7"/><text x="360.0" y="267" text-anchor="middle" font-size="12" font-weight="bold" fill="#fff">TECH</text><text x="468.0" y="267" text-anchor="middle" font-size="12" font-weight="bold" fill="#fff">Python | airogram</text>
</svg>